<?xml version="1.0" encoding="utf-8"?>
<!-- Generator: Adobe Illustrator 17.1.0, SVG Export Plug-In . SVG Version: 6.00 Build 0)  -->
<!DOCTYPE svg PUBLIC "-//W3C//DTD SVG 1.1//EN" "http://www.w3.org/Graphics/SVG/1.1/DTD/svg11.dtd">
<svg version="1.1" id="Layer_1" xmlns="http://www.w3.org/2000/svg" xmlns:xlink="http://www.w3.org/1999/xlink" x="0px" y="0px"
	 viewBox="30 6.28 777 658" enable-background="new 30 6.28 777 658" xml:space="preserve">
<g id="Layer_1_1_">
	<g>
		<path fill="#FFFFFF" d="M422.829,256.853h0.003c35.642-23.566,59.235-63.951,59.235-109.789
			c0-72.544-59.021-131.568-131.568-131.568S218.934,74.517,218.934,147.064c0,45.834,23.589,86.223,59.235,109.789
			c-59.418,28.716-100.836,91.458-100.836,164.267c0,13.961,11.835,20.418,20.357,20.418l60.352-0.075v-38.555h-41.064
			c8.471-70.001,65.119-124.266,133.521-124.269c68.402,0.003,125.046,54.268,133.521,124.269h-41.064v38.555l60.352,0.075
			c8.518,0,20.357-6.458,20.357-20.418C523.662,348.311,482.248,285.572,422.829,256.853z M350.503,240.084
			c-51.287,0-93.013-41.73-93.013-93.02c0-51.287,41.73-93.013,93.013-93.013s93.013,41.73,93.013,93.013
			C443.516,198.354,401.79,240.084,350.503,240.084z"/>
		<path fill="#FFFFFF" d="M580.635,255.817c25.433-19.183,41.974-49.552,41.974-83.792c0-57.901-47.104-105.005-105.005-105.005
			c-9.985,0-18.086,8.097-18.086,18.086c0,9.992,8.101,18.089,18.086,18.089c37.954,0,68.83,30.875,68.83,68.83
			c0,37.958-30.875,68.84-68.83,68.84c-9.985,0-18.086,8.101-18.086,18.086c0,9.985,8.101,18.086,18.086,18.086
			c73.233,0,88.613,58.525,88.613,107.629c0,9.985,8.101,18.086,18.089,18.086c9.988,0,18.086-8.101,18.086-18.086
			C642.396,322.487,620.134,277.638,580.635,255.817z"/>
		<path fill="#FFFFFF" d="M206.192,258.954c0-9.985-8.101-18.086-18.086-18.086c-37.954,0-68.83-30.882-68.83-68.84
			c0-37.954,30.875-68.83,68.83-68.83c9.985,0,18.086-8.097,18.086-18.089s-8.101-18.086-18.086-18.086
			c-57.901,0-105.005,47.104-105.005,105.005c0,34.24,16.545,64.61,41.974,83.792c-39.496,21.821-61.758,66.67-61.758,128.852
			c0,9.985,8.101,18.086,18.086,18.086s18.086-8.101,18.086-18.086c0-49.104,15.38-107.629,88.613-107.629
			C198.088,277.04,206.192,268.939,206.192,258.954z"/>
	</g>
	<g>
		<path fill="#FFFFFF" d="M38.095,471.921c0-0.978,0.652-1.626,1.626-1.626h10.596c1.304,0,2.119,0.489,2.607,1.626l33.086,74.646
			H86.5l32.434-74.646c0.492-1.141,1.307-1.626,2.611-1.626h10.593c0.978,0,1.63,0.648,1.63,1.626v107.568
			c0,0.978-0.652,1.63-1.63,1.63h-10.27c-0.978,0-1.626-0.652-1.626-1.63v-77.087h-0.492l-27.541,60.953
			c-0.652,1.467-1.47,1.956-2.933,1.956h-6.519c-1.63,0-2.448-0.492-3.096-1.956l-27.545-60.953h-0.489v77.087
			c0,0.978-0.652,1.63-1.63,1.63h-10.27c-0.974,0-1.626-0.652-1.626-1.63V471.921H38.095z"/>
		<path fill="#FFFFFF" d="M201.062,581.119c-0.978,0-1.63-0.652-1.63-1.63v-43.675l-32.756-63.73
			c-0.326-0.974,0.163-1.789,1.304-1.789h11.571c1.144,0,1.793,0.489,2.448,1.626l24.774,47.43h0.326l24.608-47.43
			c0.492-1.141,1.144-1.626,2.285-1.626h11.245c1.307,0,1.63,0.815,1.307,1.789l-32.76,63.73v43.675c0,0.978-0.648,1.63-1.626,1.63
			H201.062z"/>
		<path fill="#FFFFFF" d="M277.181,498.454c0-24.554,0.971-33.792,4.617-45.22c8.512-26.744,31.364-40.114,60.78-40.114
			c30.879,0,51.056,15.319,58.838,35.255c0.73,1.46,0.489,2.916-0.971,3.646l-26.017,10.943c-1.701,0.486-2.916,0-3.402-1.215
			c-6.566-11.184-14.83-17.02-28.448-17.02c-14.1,0-22.849,7.048-26.499,18.476c-1.945,5.836-2.675,13.615-2.675,35.252
			c0,21.641,0.73,29.66,2.675,35.496c3.646,11.428,12.643,18.235,26.985,18.235c12.399,0,23.097-6.077,26.502-17.02
			c1.215-4.135,1.942-9.238,1.942-16.29c0-0.971-0.486-1.46-1.457-1.46h-22.371c-1.46,0-2.431-0.971-2.431-2.431v-23.342
			c0-1.46,0.971-2.431,2.431-2.431h56.892c1.46,0,2.431,0.971,2.431,2.431v13.618c0,14.586-1.212,28.203-4.132,37.197
			c-8.267,26.503-31.12,41.332-60.298,41.332c-29.415,0-52.272-13.37-60.78-40.117C278.152,532.249,277.181,523.015,277.181,498.454
			z"/>
		<path fill="#FFFFFF" d="M456.424,471.921c0-0.978,0.652-1.626,1.626-1.626h11.248c0.978,0,1.63,0.648,1.63,1.626v94.694
			c0,0.652,0.326,0.978,0.978,0.978h52.808c0.978,0,1.626,0.652,1.626,1.63v10.263c0,0.978-0.648,1.63-1.626,1.63h-66.66
			c-0.974,0-1.626-0.652-1.626-1.63V471.921H456.424z"/>
		<path fill="#FFFFFF" d="M560.397,471.921c0-0.978,0.652-1.626,1.63-1.626h11.245c0.978,0,1.63,0.648,1.63,1.626v107.568
			c0,0.978-0.652,1.63-1.63,1.63h-11.245c-0.978,0-1.63-0.652-1.63-1.63V471.921z"/>
		<path fill="#FFFFFF" d="M613.195,569.056c-0.652-0.648-0.815-1.626-0.163-2.444l7.171-8.474c0.648-0.815,1.467-0.815,2.282-0.163
			c7.171,5.704,18.252,11.408,30.967,11.408c15.319,0,24.445-7.663,24.445-18.904c0-9.452-5.378-15.811-23.141-18.093l-5.544-0.811
			c-21.512-2.933-32.597-13.204-32.597-30.641c0-19.722,14.182-32.434,36.182-32.434c13.037,0,25.586,4.237,33.737,10.267
			c0.815,0.652,0.978,1.467,0.329,2.282l-5.544,8.967c-0.648,0.811-1.467,0.811-2.282,0.326c-8.967-5.541-17.274-8.311-26.73-8.311
			c-13.526,0-21.023,7.333-21.023,17.926c0,9.289,6.193,15.485,23.308,17.763l5.378,0.815c21.678,2.933,32.597,12.874,32.597,30.967
			c0,19.393-13.689,33.412-40.419,33.412C636.499,582.912,621.343,576.556,613.195,569.056z"/>
		<path fill="#FFFFFF" d="M753.675,581.119c-0.978,0-1.63-0.652-1.63-1.63v-94.69c0-0.652-0.326-0.978-0.978-0.978h-30.315
			c-0.978,0-1.63-0.652-1.63-1.63v-10.267c0-0.978,0.652-1.626,1.63-1.626h77.09c0.978,0,1.626,0.648,1.626,1.626v10.267
			c0,0.978-0.648,1.63-1.626,1.63h-30.315c-0.652,0-0.978,0.326-0.978,0.978v94.69c0,0.978-0.652,1.63-1.63,1.63H753.675z"/>
	</g>
</g>
<text transform="matrix(1 0 0 1 652.5914 649.28)" fill="#FFFFFF" font-family="'DINNextLTPro-Regular'" font-size="60" letter-spacing="12">beta</text>
</svg>
